<?xml version="1.0" encoding="utf-8"?>
<!-- Generator: Adobe Illustrator 24.1.2, SVG Export Plug-In . SVG Version: 6.00 Build 0)  -->
<svg version="1.1" id="Layer_1" xmlns="http://www.w3.org/2000/svg" xmlns:xlink="http://www.w3.org/1999/xlink" x="0px" y="0px"
	 viewBox="0 0 367.7 407.8" style="enable-background:new 0 0 367.7 407.8;" xml:space="preserve">
<style type="text/css">
	.st0{fill:#5CFFFF;}
	.st1{fill:#FF3823;}
	.st2{fill:#FFFFFF;}
	.st3{fill:none;stroke:#FFFFFF;stroke-width:8;stroke-linecap:round;stroke-miterlimit:10;}
</style>
<g>
	<path class="st0" d="M250.7,103H139.3v59.9h102.6c7.6,0,13.2,1.7,16.9,5.1s5.6,7.9,5.6,13.4c0,5.6-1.8,10.1-5.5,13.6
		s-9.3,5.2-17,5.2H139.3v69.4h115.2c7.8,0,13.6,1.8,17.6,5.4c3.9,3.6,5.9,8.4,5.9,14.4c0,5.8-2,10.5-5.9,14.1
		c-3.9,3.6-9.8,5.4-17.6,5.4H120.2c-10.8,0-18.5-2.4-23.2-7.2c-4.7-4.8-7.1-12.5-7.1-23.1V95.1c0-7.1,1.1-12.9,3.2-17.4
		s5.4-7.8,9.9-9.8s10.2-3.1,17.2-3.1h130.5c7.9,0,13.7,1.8,17.6,5.2c3.8,3.5,5.7,8.1,5.7,13.7c0,5.8-1.9,10.4-5.7,13.9
		C264.5,101.2,258.6,103,250.7,103z"/>
</g>
<g>
	<path class="st1" d="M264.8,119H153.4v59.9H256c7.5,0,13.2,1.7,16.9,5.1s5.6,7.9,5.6,13.4c0,5.6-1.8,10.1-5.5,13.6s-9.3,5.2-17,5.2
		H153.4v69.4h115.2c7.8,0,13.6,1.8,17.6,5.4c3.9,3.6,5.9,8.4,5.9,14.4c0,5.8-2,10.5-5.9,14.1c-3.9,3.6-9.8,5.4-17.6,5.4H134.2
		c-10.8,0-18.5-2.4-23.2-7.2c-4.7-4.8-7.1-12.5-7.1-23.1V111.1c0-7.1,1.1-12.9,3.2-17.4s5.4-7.8,9.9-9.8s10.2-3.1,17.2-3.1h130.5
		c7.9,0,13.7,1.8,17.6,5.2c3.8,3.5,5.7,8.1,5.7,13.7c0,5.8-1.9,10.4-5.7,13.9C278.5,117.2,272.7,119,264.8,119z"/>
</g>
<g>
	<path class="st2" d="M260.5,112H149.4v59.8h102.3c7.5,0,13.1,1.7,16.9,5.1c3.7,3.4,5.6,7.8,5.6,13.4c0,5.5-1.8,10-5.5,13.5
		s-9.3,5.2-16.9,5.2H149.4v69.2h114.9c7.8,0,13.6,1.8,17.5,5.4c3.9,3.6,5.9,8.4,5.9,14.4c0,5.8-2,10.4-5.9,14
		c-3.9,3.6-9.8,5.4-17.5,5.4h-134c-10.7,0-18.5-2.4-23.2-7.1c-4.7-4.8-7.1-12.5-7.1-23.1v-183c0-7.1,1.1-12.9,3.2-17.3
		c2.1-4.5,5.4-7.8,9.9-9.8c4.5-2.1,10.2-3.1,17.2-3.1h130.2c7.9,0,13.7,1.7,17.5,5.2s5.7,8.1,5.7,13.7c0,5.8-1.9,10.4-5.7,13.9
		S268.4,112,260.5,112z"/>
</g>
<g>
	<line class="st3" x1="319.9" y1="350.1" x2="319.9" y2="286.1"/>
	<line class="st3" x1="319.6" y1="350.1" x2="255.6" y2="350.1"/>
</g>
<g>
	<line class="st3" x1="68.1" y1="48.8" x2="68.1" y2="112.8"/>
	<line class="st3" x1="68.4" y1="48.8" x2="132.4" y2="48.8"/>
</g>
</svg>
